<?xml version="1.0" encoding="UTF-8"?>
<svg version="1.1" viewBox="0 0 1600 1600" width="1280" height="1280" xmlns="http://www.w3.org/2000/svg">
<path transform="translate(222,640)" d="m0 0h95c6.01 12 10.7 23.9 14.8 36.5 2.36 7.14 5.06 14.1 8.16 20.9 2.56 5.69 4.71 11.5 6.62 17.5 2.1 6.5 4.62 12.8 7.19 19.1 3.87 9.6 7.61 19.2 11.2 28.9 0.997 2.67 2 5.33 3 8 0.697 1.86 1.39 3.72 2.09 5.58 0.499 1.33 0.998 2.66 1.5 3.99 1.33 3.54 2.65 7.09 3.96 10.6 2.2 5.98 4.43 11.9 7.14 17.7 1.93 4.11 3.36 8.17 4.54 12.5 1.08 3.6 2.43 7.08 3.77 10.6 0.275 0.721 0.55 1.44 0.834 2.18 4.4 11.5 4.4 11.5 9.28 22.8 3.66 8.16 6.7 16.6 9.89 25h3c0.221-0.614 0.443-1.23 0.671-1.86 1.02-2.84 2.05-5.68 3.08-8.51 0.348-0.966 0.696-1.93 1.05-2.93 1.69-4.65 3.41-9.28 5.29-13.9 1.84-4.55 3.32-9.14 4.72-13.8 2.72-8.84 5.95-17.4 9.38-26 4.61-11.5 8.68-23.1 12.3-35 0.263-0.846 0.526-1.69 0.797-2.56 0.511-1.65 1.02-3.3 1.52-4.95 1.37-4.42 2.98-8.41 5.14-12.5 2.42-5.57 4.4-11.1 6-17 0.7-2.14 1.43-4.28 2.15-6.41 0.993-3.03 1.88-6.09 2.79-9.15 1.35-4.45 2.92-8.4 5.12-12.5 1.48-3.12 2.29-6.41 3.22-9.73 0.861-2.7 2.23-4.83 3.71-7.24 1.97-5.08 3.41-10.4 5-15.6 1.29-4.23 2.68-8.37 4.29-12.5 0.803-2.21 1.44-4.43 2.08-6.69 1.75-5.93 3.94-11.7 6.62-17.2 0.498-1.03 0.996-2.07 1.51-3.14 2.65-3.05 2.87-3.29 6.6-3.59 1.71-0.0204 3.42-0.00756 5.12 0.0312 1.4-0.00372 1.4-0.00372 2.83-0.00752 3.09-9.18e-4 6.17 0.0409 9.26 0.0835 2.14 0.00865 4.28 0.0148 6.43 0.0185 5.64 0.0172 11.3 0.0714 16.9 0.132 4.61 0.0436 9.22 0.0611 13.8 0.0773 5.48 0.0196 11 0.0502 16.5 0.0844 1.05 0.00643 2.1 0.0129 3.19 0.0195 2.96 0.0209 5.93 0.0492 8.89 0.0804 1.33 0.00875 1.33 0.00875 2.68 0.0177 6.07 0.0757 6.07 0.0757 8.3 1.19-0.27 1.87-0.27 1.87-1 4-1.64 1.16-1.64 1.16-3.69 2.06-1.08 0.499-1.08 0.499-2.19 1.01-0.701 0.307-1.4 0.614-2.12 0.93-6.07 2.74-10.3 6.43-14 12-3.8 12.2-2.27 26.5-2.24 39.1-0.00107 2.65-0.00293 5.29-0.00575 7.94-0.00502 6.42 5.66e-4 12.8 0.00985 19.3 0.0104 7.48 0.0103 15 0.00983 22.5-4.99e-4 13.4 0.00863 26.7 0.0232 40.1 0.0141 12.9 0.0212 25.9 0.0205 38.8-5.99e-5 1.2-5.99e-5 1.2-1.21e-4 2.42-6.05e-5 1.19-6.05e-5 1.19-1.22e-4 2.41-6.91e-4 14.8 0.0052 29.5 0.0142 44.3 0.00301 5.21 0.00408 10.4 0.00453 15.6 6.84e-4 6.35 0.00517 12.7 0.0143 19.1 0.0046 3.24 0.00713 6.48 0.00641 9.71-4.92e-4 3.51 0.00518 7.03 0.0124 10.5-0.00155 1.02-0.0031 2.03-0.00469 3.08-0.229 12.2-0.229 12.2 4.14 23.2 4.92 4.61 10.8 7.61 16.8 10.6 2.22 1.39 2.22 1.39 3.22 4.39-3.44 0.776-6.6 1.12-10.1 1.12-1.01 0.00137-2.02 0.00275-3.06 0.00417-1.64-0.00539-1.64-0.00539-3.32-0.0109-1.74 2.19e-4 -1.74 2.19e-4 -3.52 4.43e-4 -3.84-6.96e-4 -7.67-0.00848-11.5-0.0163-2.66-0.00187-5.32-0.00334-7.98-0.00429-6.29-0.00311-12.6-0.0113-18.9-0.0213-7.16-0.0112-14.3-0.0167-21.5-0.0217-14.7-0.0104-29.4-0.028-44.2-0.0503-0.33-0.99-0.66-1.98-1-3 0.724-0.315 1.45-0.629 2.2-0.953 12.3-5.28 12.3-5.28 20.4-15.5 1.86-5.17 1.85-10.1 1.84-15.6 0.015-1.64 0.015-1.64 0.0304-3.31 0.0299-3.65 0.0389-7.29 0.048-10.9 0.0172-2.62 0.0358-5.24 0.0556-7.86 0.0405-5.63 0.0704-11.3 0.0931-16.9 0.0329-8.15 0.0831-16.3 0.138-24.4 0.0882-13.2 0.164-26.4 0.231-39.7 0.0653-12.8 0.134-25.7 0.209-38.5 0.00462-0.791 0.00924-1.58 0.014-2.4 0.0505-8.63 0.102-17.3 0.156-25.9 0.0047-0.758 0.0094-1.52 0.0142-2.3 0.0188-3.03 0.0376-6.06 0.0566-9.09 0.0556-8.88 0.107-17.8 0.151-26.6 0.0306-6.22 0.0658-12.4 0.103-18.7 0.0142-2.56 0.0267-5.11 0.0374-7.67 0.0147-3.48 0.0354-6.95 0.0576-10.4 0.00282-1.02 0.00565-2.05 0.00855-3.1 0.00711-0.926 0.0142-1.85 0.0215-2.8 0.0061-1.2 0.0061-1.2 0.0123-2.43 0.134-1.94 0.134-1.94 1.13-3.94h-2v2h-2c-0.0825 0.763-0.165 1.53-0.25 2.31-0.839 4.12-2.23 7.82-3.71 11.7-1.02 2.88-1.84 5.74-2.61 8.69-1.12 4.29-2.66 8.18-4.44 12.2-0.476 1.54-0.933 3.08-1.38 4.62-2.42 8.33-5.75 16.3-9.12 24.3-4.14 9.86-7.51 19.9-10.6 30.2-0.952 3.06-2.03 6.03-3.19 9.02-0.781 2.07-1.47 4.16-2.15 6.26-1.04 3.16-2.18 6.24-3.44 9.31-3.56 8.76-6.61 17.7-9.56 26.7-1.79 5.42-3.69 10.8-5.69 16.1-0.242 0.646-0.483 1.29-0.732 1.96-1.16 3.06-2.37 6.07-3.67 9.07-1.46 3.45-2.68 6.91-3.84 10.5-0.432 1.31-0.865 2.63-1.3 3.94-0.218 0.668-0.437 1.34-0.662 2.02-5.5 16.8-5.5 16.8-7.93 23.1-0.908 2.38-1.76 4.79-2.61 7.19-1.36 3.76-2.83 7.43-4.42 11.1-3.44 8.2-6.09 16.6-8.83 25.1-9.37 28.9-9.37 28.9-13.9 34.6-2.54 0.568-2.54 0.568-5.54 0.488-1.07-0.0161-2.15-0.0322-3.25-0.0488-1.12-0.0419-2.24-0.0838-3.39-0.127-1.13-0.0226-2.26-0.0451-3.43-0.0684-2.8-0.059-5.59-0.141-8.38-0.244v-2h-2c-0.588-1.89-0.588-1.89-1.19-3.81-1.17-3.53-2.54-6.87-4.12-10.2-2.77-6.04-5.2-12.2-7.57-18.4-0.433-1.13-0.865-2.26-1.31-3.42-2.97-7.79-5.77-15.6-8.48-23.5-2.19-6.33-4.69-12.5-7.33-18.6-3.42-8.21-6.49-16.4-9.02-24.9-1.28-4.02-2.9-7.85-4.57-11.7-1.73-4.11-3.32-8.27-4.92-12.4-1.9-4.95-3.85-9.83-6.12-14.6-2.58-5.49-4.41-11.2-6.26-16.9-0.939-2.85-1.98-5.6-3.11-8.38-1.24-3.93-2-6.86-2-11h-2c-11.2-27.8-11.2-27.8-13.4-36.4-1.03-3.94-2.4-7.28-4.31-10.9-6.99-13.3-11.7-28.4-15.8-42.9-1.14-3.85-2.63-7.24-4.5-10.8-0.7-1.99-1.38-3.99-2-6l-2 1c0.0103 1.08 0.0206 2.15 0.0312 3.26 0.104 10.9 0.205 21.8 0.305 32.6 0.056 6.08 0.113 12.2 0.171 18.3 0.0738 7.73 0.146 15.5 0.215 23.2 0.00906 1.01 0.00906 1.01 0.0183 2.03 0.193 21.6 0.32 43.2 0.41 64.8 0.0248 5.91 0.0522 11.8 0.0812 17.7 0.0061 1.25 0.0061 1.25 0.0123 2.52 0.0164 3.35 0.0329 6.69 0.0496 10 0.0496 9.93 0.0899 19.9 0.116 29.8 0.017 6.3 0.0447 12.6 0.0804 18.9 0.0204 3.66 0.0357 7.33 0.038 11 0.00254 4.01 0.028 8.01 0.0554 12-0.00451 1.74-0.00451 1.74-0.0091 3.52 0.00743 11.3 0.00743 11.3 5.03 21 0.691 0.669 0.691 0.669 1.4 1.35v2c0.701 0.268 1.4 0.536 2.12 0.812 2.88 1.19 2.88 1.19 5.69 2.69 2.67 1.25 4.55 1.83 7.38 2.38 3.81 1.12 3.81 1.12 6.81 6.12h-66v-4c2.23-0.959 4.46-1.92 6.69-2.88 0.939-0.404 0.939-0.404 1.9-0.816 2.75-1.18 5.48-2.33 8.3-3.35 2.37-0.802 2.37-0.802 3.3-3.46 0.268-0.825 0.536-1.65 0.812-2.5 0.66-0.66 1.32-1.32 2-2 2.13-6.55 2.29-12.7 2.26-19.5 0.00383-1.14 0.00765-2.29 0.0116-3.47 0.0103-3.82 0.00634-7.65 0.00237-11.5 0.00326-2.75 0.00947-5.49 0.0155-8.24 0.0127-6.68 0.0145-13.4 0.0122-20-0.00179-5.43-2.94e-5 -10.9 0.00422-16.3 5.95e-4 -0.773 0.00119-1.55 0.0018-2.34 0.00121-1.57 0.00243-3.14 0.00364-4.71 0.0109-14.7 0.00872-29.5 0.00262-44.2-0.00517-13.5 0.00609-26.9 0.0251-40.4 0.0194-13.8 0.0276-27.7 0.0239-41.5-0.00191-7.76 5.66e-4 -15.5 0.0147-23.3 0.0119-6.61 0.0133-13.2 0.00121-19.8-0.00588-3.37-0.00537-6.74 5e-3 -10.1 0.0105-3.66 0.00238-7.31-0.0103-11 0.00737-1.06 0.0147-2.12 0.0223-3.21-0.0546-7.49-1.25-13.7-5.02-20.3-3.38-3.11-7.13-4.53-11.4-6.19-4.01-1.62-7.65-3.19-11-6 0.66-1.32 1.32-2.64 2-4zm190 244c0.33 0.66 0.66 1.32 1 2 0.33-0.66 0.66-1.32 1-2h-2z" fill="#FBFCFE"/>
<path transform="translate(1189 640)" d="m0 0c5.82 1.02e-4 11.6-0.0136 17.5-0.0308 4.58-0.0112 9.16-0.0131 13.7-0.0126 2.15-0.00116 4.29-0.00545 6.44-0.0133 56.1-0.187 56.1-0.187 69 6.24 1.32 0.294 2.64 0.555 3.96 0.797 24.1 4.58 46.8 17.8 61.9 37.6 1.47 2.17 2.84 4.36 4.18 6.61 0.681 1.05 1.36 2.1 2.06 3.19 13.8 25.1 13.4 53.9 5.94 80.8-0.918 2.71-1.94 5.34-3 8-0.442 1.31-0.881 2.62-1.31 3.94-4.17 11-13.2 22.3-22.9 28.7-1.94 1.32-1.94 1.32-3.76 3.29-6.83 6.7-17 11.1-26.1 14-1.06 0.463-2.11 0.926-3.2 1.4-3.77 1.63-7.62 2.93-11.6 4.1-0.719 0.214-1.44 0.429-2.18 0.649-7.34 2.09-14.8 3.22-22.3 4.27-3.56 0.352-3.56 0.352-5.75 1.58-12.4 1.63-25.2 1.33-37.7 1.55-2.83 0.0515-5.65 0.109-8.48 0.167-0.873 0.0136-1.75 0.0272-2.64 0.0411-3.91-0.3-3.91-0.3-7.18 1.24-1.34 8.53-1.15 17.1-1.13 25.7-6.75e-4 1.63-0.00165 3.26-0.0029 4.89-0.00147 3.41 6.5e-4 6.82 0.00534 10.2 0.00566 4.32 0.00243 8.65-0.00357 13-0.00365 3.37-0.00244 6.74 1.28e-4 10.1 6.57e-4 1.59-1.17e-4 3.18-0.00248 4.77-0.00926 8 0.0736 16 0.457 24 0.0568 1.24 0.114 2.49 0.172 3.77 0.864 6.07 3.19 11.1 7.51 15.6 7.01 5.25 14.4 7.99 23 9.18 2.84 1.18 3.51 3.2 4.98 5.82-16.4 0.0234-32.7 0.041-49.1 0.0518-7.6 0.00514-15.2 0.0122-22.8 0.0236-6.63 0.01-13.3 0.0164-19.9 0.0186-3.51 0.0013-7.01 0.00432-10.5 0.0116-3.93 0.00813-7.85 0.00826-11.8 0.0078-1.15 0.0036-2.3 0.00719-3.48 0.0109-6.86-0.00871-13.6-0.374-20.4-1.12v-3c2.97-1.3 5.61-2.12 8.81-2.75 4.93-1.22 8.73-3.52 12.2-7.25 4.77-8.75 4.15-19.8 4.15-29.5 0.00438-1.13 0.00876-2.25 0.0133-3.41 0.0133-3.76 0.0195-7.52 0.0257-11.3 0.00791-2.7 0.0162-5.4 0.0248-8.1 0.0244-8.09 0.0391-16.2 0.0521-24.3 0.00372-2.29 0.00769-4.57 0.0118-6.86 0.0252-14.2 0.0473-28.4 0.0597-42.7 0.00293-3.29 0.00589-6.58 0.00891-9.86 7.46e-4 -0.817 0.00149-1.63 0.00226-2.48 0.0127-13.2 0.0459-26.5 0.0875-39.7 0.0425-13.6 0.066-27.2 0.0712-40.8 0.00341-7.64 0.0151-15.3 0.0481-22.9 0.0281-6.5 0.039-13 0.0278-19.5-0.00517-3.31 3.32e-4 -6.63 0.0225-9.94 0.0227-3.6 0.0144-7.2-0.00148-10.8 0.0139-1.03 0.0278-2.07 0.0421-3.13-0.0899-8.33-2.04-16.6-7.63-23-2.67-2.28-5.15-2.9-8.52-3.79-4.16-1.11-7.22-2.1-10.5-4.94 0.33-0.99 0.66-1.98 1-3 25.5-1.12 50.9-1.19 76.4-1.19zm-40.4 1.19v1h23v-1h-23zm66 10c-0.25 2.64-0.372 5.17-0.41 7.81-0.0191 0.827-0.0382 1.65-0.0578 2.51-0.0609 2.82-0.106 5.64-0.15 8.46-0.0379 2.04-0.0758 4.08-0.114 6.12-0.481 27.9-0.42 55.9-0.398 83.8 0.00439 6.17 0.0012 12.3-0.00363 18.5-0.00453 6.04-0.00518 12.1-0.00256 18.1 0.00155 3.57 0.00179 7.14-0.00154 10.7-0.00342 3.93 0.00131 7.87 0.0069 11.8-0.00202 1.16-0.00405 2.33-0.00613 3.52 0.00282 1.07 0.00564 2.14 0.00854 3.24 3.77e-4 0.924 7.54e-4 1.85 0.00114 2.8 0.128 2.62 0.546 5.03 1.13 7.58 4.91 0.05 9.81 0.086 14.7 0.11 1.66 0.00996 3.33 0.0235 4.99 0.041 17.7 0.181 38.1-0.654 51.8-13.6 1.24-1.44 2.34-2.98 3.45-4.53 0.418-0.545 0.835-1.09 1.27-1.65 5.79-7.69 8.49-15.5 10.8-24.8 0.93-3.59 0.93-3.59 1.98-6.46 7.29-23.9 3.87-55.7 0.953-80.1h-1c-0.231-0.955-0.461-1.91-0.699-2.89-3.74-15-9.31-30.7-22.3-40.1h-2v-2c-16.2-8.72-30.6-11.2-48.9-11.2-1.85-0.0184-1.85-0.0184-3.73-0.0371-1.76-0.0029-1.76-0.0029-3.55-0.00586-1.6-0.00616-1.6-0.00616-3.22-0.0125-2.73-0.016-2.73-0.016-4.56 2.24zm92 109 1 4zm-168 183 1 4z" fill="#FCFDFF"/>
<path transform="translate(798 640)" d="m0 0c0.879 2.17e-4 1.76 4.35e-4 2.66 6.59e-4 1.01-0.0046 2.03-0.0092 3.07-0.0139 1.68 0.00772 1.68 0.00772 3.4 0.0156 1.18-0.00241 2.37-0.00483 3.59-0.00732 3.3-0.00468 6.6-3.28e-4 9.89 0.00776 3.55 0.00656 7.11 0.00163 10.7-0.00188 6.96-0.00505 13.9 6.1e-4 20.9 0.00985 8.1 0.0104 16.2 0.0103 24.3 0.00983 14.5-5.01e-4 28.9 0.00867 43.4 0.0232 14 0.0141 28.1 0.0212 42.1 0.0205 1.3-5.99e-5 1.3-5.99e-5 2.62-1.21e-4 0.863-4.04e-5 1.73-8.07e-5 2.62-1.22e-4 16-6.89e-4 31.9 0.0052 47.9 0.0142 5.65 0.00302 11.3 0.00408 17 0.00453 6.89 6.81e-4 13.8 0.00513 20.7 0.0143 3.52 0.00463 7.03 0.00766 10.5 0.00641 3.8-0.00129 7.61 0.00513 11.4 0.0124 1.12-0.00155 2.24-0.0031 3.4-0.00469 1.52 0.00484 1.52 0.00484 3.07 0.00977 0.879 7.04e-4 1.76 0.00141 2.66 0.00213 2.11 0.126 2.11 0.126 4.11 1.13v81c-1.65-1.32-3.3-2.64-5-4v-3h-2c-4.6-8.22-8.86-16.6-13-25-0.691-1.39-1.4-2.76-2.12-4.13-0.366-0.706-0.733-1.41-1.11-2.14-0.336-0.637-0.673-1.27-1.02-1.93-0.739-1.77-0.739-1.77-0.739-4.77h-2c-1.3-1.91-1.3-1.91-2.75-4.5-5.54-9.52-11.1-18.5-22.2-21.5-6.6-1.11-13.2-1.15-19.9-1.13-1.01-9.57e-4 -2.01-0.00191-3.05-0.0029-2.11-6.76e-4 -4.22 0.00114-6.32 0.00534-3.24 0.0054-6.48 1.29e-5 -9.72-0.00635-2.05 6.6e-4 -4.1 0.00194-6.16 0.00391-0.973-0.00202-1.95-0.00405-2.95-0.00613-0.892 0.00315-1.78 0.0063-2.7 0.00955-1.18 0.00119-1.18 0.00119-2.39 0.00241-1.83-0.0699-1.83-0.0699-2.81 1.13-0.101 1.58-0.131 3.16-0.134 4.74-0.00669 1.55-0.00669 1.55-0.0135 3.13 1.84e-4 1.15 3.69e-4 2.29 5.59e-4 3.48-0.00368 1.21-0.00735 2.42-0.0111 3.66-0.00915 3.37-0.0137 6.74-0.0164 10.1-0.00389 3.63-0.0135 7.25-0.0222 10.9-0.0198 8.77-0.0298 17.5-0.0387 26.3-0.00438 4.13-0.00975 8.26-0.015 12.4-0.017 13.7-0.0315 27.4-0.0387 41.2-0.00191 3.56-0.00383 7.13-0.00579 10.7-4.84e-4 0.886-9.67e-4 1.77-0.00147 2.68-0.0083 14.3-0.0336 28.7-0.0661 43-0.0331 14.7-0.0511 29.4-0.0543 44.2-0.00217 8.27-0.0109 16.5-0.0365 24.8-0.0217 7.04-0.0298 14.1-0.02 21.1 0.00455 3.59 0.00264 7.18-0.0168 10.8-0.0209 3.9-0.0106 7.79 0.00253 11.7-0.011 1.13-0.0219 2.26-0.0332 3.43 0.0664 8.13 1.62 13.5 6.96 19.6 4.65 3.97 8.46 5.54 14.4 6.73 2.82 0.594 5.47 1.52 8.19 2.46 0.82 0.215 1.64 0.431 2.48 0.652 1.34 0.358 1.34 0.358 2.7 0.723 0.839 0.214 1.68 0.428 2.54 0.648 2.27 0.977 2.27 0.977 5.27 4.98h-159c-0.495-1.48-0.495-1.48-1-3 4.04-1.62 7.92-3.06 12.2-3.94 13.3-2.47 13.3-2.47 23.8-10.1 3.92-8.01 4.64-15.6 4.73-24.4 0.0275-1.41 0.0561-2.82 0.0857-4.23 0.0966-5.13 0.142-10.3 0.184-15.4 0.0138-1.53 0.0138-1.53 0.0279-3.09 0.153-17.1 0.22-34.3 0.269-51.4 0.0212-7.28 0.0476-14.6 0.0742-21.8 0.0473-13 0.0906-26 0.131-38.9 0.0396-12.6 0.081-25.2 0.125-37.7 0.00272-0.78 0.00545-1.56 0.00826-2.36 0.0137-3.91 0.0274-7.83 0.0411-11.7 0.113-32.3 0.22-64.6 0.323-96.9-7.2-0.0765-14.4-0.129-21.6-0.165-2.45-0.015-4.89-0.0354-7.34-0.0615-3.53-0.0367-7.06-0.0535-10.6-0.0667-1.62-0.0232-1.62-0.0232-3.27-0.0469-9.18-2e-3 -19.1 1.03-26.2 7.34-2.52 3.22-4.77 6.58-7 10-0.77 1.13-1.54 2.25-2.31 3.38-1.39 2.17-2.61 4.29-3.69 6.62h-2c-0.255 0.849-0.51 1.7-0.773 2.57-1.3 3.63-2.98 6.89-4.85 10.2-4.49 8.23-8.46 16.7-12.4 25.2h-2c-0.66 1.98-1.32 3.96-2 6-1.66 0.382-3.32 0.714-5 1-1.87-1.87-1.13-5.06-1.13-7.56-0.00136-0.684-0.00273-1.37-0.00414-2.07-0.00205-2.27 0.00435-4.54 0.0119-6.81 0.00122-0.775 0.00244-1.55 0.00369-2.35 0.0219-11.9 0.215-23.9 0.559-35.8 0.0196-0.709 0.0391-1.42 0.0593-2.15 0.708-25 0.708-25 5.61-25.5zm69.9 1.25v1h8v-1h-8zm-74 11 1 2zm-1 34 1 4z" fill="#FBFCFE"/>
<path transform="translate(637 840)" d="m0 0c0.911 5.45e-4 1.82 0.00109 2.76 0.00165 1.04-0.00419 2.09-0.00839 3.17-0.0127 1.73 0.00843 1.73 0.00843 3.49 0.017 1.21-0.0019 2.42-0.0038 3.66-0.00575 3.32-0.00308 6.64 0.00282 9.95 0.013 3.47 0.00877 6.93 0.00702 10.4 0.00664 5.82 9.37e-4 11.6 0.00963 17.5 0.0233 6.74 0.0157 13.5 0.021 20.2 0.0203 6.47-6.09e-4 12.9 0.00449 19.4 0.0128 2.76 0.00354 5.52 0.00536 8.28 0.00589 3.85 0.00119 7.7 0.0109 11.5 0.0216 1.15-4.53e-4 2.31-9.06e-4 3.49-0.00137 1.04 0.00426 2.08 0.00853 3.16 0.0129 1.37 0.00251 1.37 0.00251 2.76 0.00508 2.05 0.129 2.05 0.129 3.05 1.13 0.0721 1.69 0.0839 3.38 0.0625 5.06-0.00902 0.919-0.018 1.84-0.0273 2.79-0.0116 0.71-0.0232 1.42-0.0352 2.15-5.8 1.93-12.3 1.42-18.4 1.56-0.817 0.0208-1.63 0.0417-2.48 0.0632-20 0.49-40.1 0.485-60.1 0.497-2.64 0.00206-5.29 0.00583-7.93 0.00991-4.22 0.00589-8.45 0.00598-12.7 0.00154-1.58-0.00104-3.16-4.81e-4 -4.74 0.00176-2.19 0.00256-4.37-0.00126-6.56-0.00675-1.85-0.00119-1.85-0.00119-3.74-0.00241-3.24-0.122-6.22-0.384-9.38-1.13-1.11-2.23-1.16-3.53-1.19-6-0.0142-0.701-0.0284-1.4-0.043-2.12 0.362-2.94 1.54-3.8 4.41-4.12z" fill="#FCFDFF"/>
<path transform="translate(902,654)" d="m0 0h1v260h-1v-260z" fill="#FCFDFF"/>
<path transform="translate(1215,697)" d="m0 0h1v134h-1v-134z" fill="#000002"/>
<path transform="translate(1215,861)" d="m0 0h1v23h-1v-23z" fill="#000002"/>
<path transform="translate(1089,706)" d="m0 0h1v17h-1v-17z" fill="#000002"/>
<path transform="translate(259,788)" d="m0 0h1v13h-1v-13z" fill="#000002"/>
<path transform="translate(576,674)" d="m0 0h1v13h-1v-13z" fill="#000002"/>
<path transform="translate(1215,922)" d="m0 0h1v10h-1v-10z" fill="#000002"/>
<path transform="translate(258,693)" d="m0 0h1v7h-1v-7z" fill="#000002"/>
<path transform="translate(1238,650)" d="m0 0h6v1h-6v-1z" fill="#000002"/>
<path transform="translate(757,852)" d="m0 0 4 1z" fill="#000002"/>
<path transform="translate(1225,847)" d="m0 0 4 1z" fill="#000002"/>
<path transform="translate(793,723)" d="m0 0c3 1 3 1 3 1z" fill="#000002"/>
<path transform="translate(852,650)" d="m0 0c3 1 3 1 3 1z" fill="#000002"/>
</svg>
